<svg xmlns="http://www.w3.org/2000/svg" viewBox="0 0 120 22.3" height="20"><path fill="#1a304d" d="M0,17.5V6.3c0-3.2,1.6-4.8,4.7-4.8h8.4l1.5,1.2v1.6H4.7C3.6,4.3,3,4.9,3,6v11.8c0,1.1,0.6,1.7,1.7,1.7h9.9v1.6 l-1.5,1.2H4.7C1.5,22.3,0,20.7,0,17.5z M18.2,17.6v-6.5c0-3.1,1.5-4.6,4.6-4.6H27c3.1,0,4.6,1.5,4.6,4.6v6.5c0,3.1-1.5,4.6-4.6,4.6 h-4.2C19.7,22.3,18.2,20.7,18.2,17.6z M21.1,17.9c0,1.2,0.6,1.8,1.8,1.8H27c1.2,0,1.7-0.6,1.7-1.8v-7.1C28.7,9.6,28.1,9,27,9h-4.1 c-1.2,0-1.8,0.6-1.8,1.8V17.9z M35.8,17.6v-6.5c0-3.1,1.5-4.6,4.6-4.6H46V0h2.9v22.3h-8.5C37.3,22.3,35.8,20.7,35.8,17.6z M38.7,17.9c0,1.2,0.6,1.8,1.8,1.8H46V9.1h-5.5c-1.2,0-1.8,0.6-1.8,1.8V17.9z M53.3,17.6v-6.5c0-3.1,1.5-4.6,4.6-4.6h3.9 c3.1,0,4.6,1.5,4.6,4.6v4.5H56.3v2.3c0,1.2,0.6,1.8,1.8,1.8h7.8v1.5l-1.4,1h-6.6C54.9,22.3,53.3,20.7,53.3,17.6z M56.3,13.2h7.2 v-2.3c0-1.2-0.6-1.8-1.7-1.8H58c-1.2,0-1.8,0.6-1.8,1.8L56.3,13.2L56.3,13.2z"></path><path fill="#ff710b" d="M71.2,22.3V1.5h3.1v20.8C74.3,22.3,71.2,22.3,71.2,22.3z M77.5,21.7l6.6-20.1H89l6.5,20.1l-0.4,0.6h-2.6 l-1.6-4.9h-9.1l-1.6,4.9h-2.6L77.5,21.7z M82.9,14.6h7.3L86.8,4.3h-0.6L82.9,14.6z M98.8,22.3V1.5h3.9l6.7,14.3l6.7-14.3h3.9v20.8 h-3.1V6.4l-6,12.9H108l-6-12.9v15.9C102,22.3,98.8,22.3,98.8,22.3z"></path></svg>