<?xml version="1.0" encoding="utf-8"?>
<!-- Generator: Adobe Illustrator 25.0.0, SVG Export Plug-In . SVG Version: 6.00 Build 0)  -->
<svg version="1.1" id="Layer_1" xmlns="http://www.w3.org/2000/svg" xmlns:xlink="http://www.w3.org/1999/xlink" x="0px" y="0px"
	 viewBox="0 0 24 24" style="enable-background:new 0 0 24 24;" xml:space="preserve">
<style type="text/css">
	.st0{fill:none;stroke:#000000;stroke-width:2;stroke-linecap:round;stroke-miterlimit:10;}
</style>
<path d="M12,17.2c2.9,0,4.3-1.4,4.3-3.2c0-1.2-0.6-2.5-2.7-2.9l-2-0.4c-0.8-0.2-1.6-0.4-1.6-1.1c0-0.7,0.6-1.2,1.7-1.2
	c2.2,0,2,1.5,3.1,1.5c0.6,0,1.1-0.3,1.1-0.9c0-1.4-2.2-2.4-4.1-2.4c-2,0-4.2,0.9-4.2,3.1c0,1.1,0.4,2.3,2.6,2.8l2.7,0.7
	c0.8,0.2,1,0.7,1,1.1c0,0.7-0.7,1.3-1.9,1.3c-2.4,0-2.1-1.8-3.4-1.8c-0.6,0-1,0.4-1,1C7.7,15.7,9,17.2,12,17.2z"/>
<path class="st0" d="M18,6c2.1,2,2.9,4.9,2.4,7.6c0.4,0.7,0.6,1.6,0.6,2.4c0,2.8-2.2,5-5,5c-0.9,0-1.7-0.2-2.4-0.6
	C10.9,20.9,8,20.1,6,18c-2.1-2-2.8-4.9-2.4-7.6C3.2,9.7,3,8.9,3,8c0-2.8,2.2-5,5-5c0.9,0,1.7,0.2,2.4,0.6C13.1,3.2,16,3.9,18,6"/>
</svg>
